# xmcd CD database file
#
# Track frame offsets:
#	150
#	21882
#	38430
#	63185
#	89110
#	111751
#	129776
#	153387
#	178350
#	206708
#	234102
#	249086
#
# Disc length: 3593 seconds
#
# Revision: 0
# Processed by: cddbd v1.5.1PL0 Copyright (c) Steve Scherf et al.
# Submitted via: CDex 1.50beta10
#
DISCID=920e070c
DTITLE=Sting - Sacred Love
DYEAR=2003
DGENRE=Blues
TTITLE0=Inside
TTITLE1=Send your Love
TTITLE2=Whenever I say your Name
TTITLE3=Dead man´s Rope
TTITLE4=Never coming Home
TTITLE5=Stolen Car
TTITLE6=Forget about the Future
TTITLE7=This War
TTITLE8=The Book of my Life
TTITLE9=Sacred Love
TTITLE10=Send your Love
TTITLE11=Shape of my Heart
EXTD=YEAR: 2003
EXTT0=
EXTT1=
EXTT2=
EXTT3=
EXTT4=
EXTT5=
EXTT6=
EXTT7=
EXTT8=
EXTT9=
EXTT10=
EXTT11=
PLAYORDER=
